P1
# CREATOR: GIMP PNM Filter Version 1.1
176 43
1111110000000000000000000000011000000000111111100000000000000001111111
1100000000000000000000000000000000000000000000000000000000000000000000
0000000000000000000000000000000000001111111000000000001111000000011100
0000001111111100000000000111111111111111000000000000000000000000000000
0000000000011111100000000000000000000000000000000000000000000000000000
0011111110000000111111111000001111100000000111111100000001111111111111
1111111100000000000000011111110000000000000000111111110000000000000000
0000000000000000000000000000000000000000011111000000111111111000001111
1000000000001111100000011111111111100000111110000000000000011111110000
0000000000001111111001000000000000000000000000000000000000000000000000
0000000111110000000001110000000011111000000000001111100000000011100011
1000000011110000000000000011111110000000000000011110000011100000000000
0000000000000000000000000000000000000000000111111000000001110000000111
0111000000000011111100000000111000111000000001110000000000000000011110
0000000000001111100000111000000000000000000000000000000000000000000000
0000000001111110000000011100000001110111000000000011111100000000111000
1110000000001110000000000000000111110000000000001111100000011000000000
0000000000000000000000000000000000000000000001110111000000011000000001
1100111000000000111011100000001100001110000000001110000000000000000111
1100000000000111111000000000000011111000000000000000011110000000000011
1110000000011101110000001110000000111000111000000000111011100000011100
0011100000000001110000000000000001111110000000001111111000000000000111
1110000000000000001111111100000011111111111000011100111000001110000000
1110000110000000001110011100000111000011100000000001110000000000000001
1111100000000011101110000111100001111110000100000000011111111100000111
1111111110000111001110000011100000001100000111000000001110011100000111
0000111000000000011100000000000000011111100000000111101110000111100000
0110001111110000001110000011100001110000011110000111000111000011100000
0111000001111000000011100011100001110000111000000000011100000000000000
0111011100000001110011100000011000000111111111111000001110000011100001
1100001110000001110001111000111000000111000000111000000011100011110001
1100001110000000000011100000000000000111011100000011100011100000011000
0001111111001111000111011000011000011000000100000001110000111000111000
0001111111111110000000111000011100011100001110000000000111100000000000
0001110011100001111000111000000110000001111100000111000111111111111100
0111100000000000011100001111001110000011111111111111000000111000011110
0111000011100000000001110000000000000001100011100001110000111000000110
0000011100000001110001111111111110000011111110000000011100000111001110
0000111111111111110000001110000011100111000011100000000001110000000000
0000011000111000111000001110000001100000011100000001110001110000001100
0000011111111000000110000000111011100000111000000000111000001100000001
1101110000111000000000111100000000000000111000011100111000001110000001
1000000111000000001100011100000000000000000011111100000110000000111111
1000011100000000001110000011000000011111110000011100000001111000000000
0000001110000111011100000011100000011100000111000000001110011100000000
1100011000000111000001100000000111110000011100000000000111000011000000
0011111000000111000000111100000000000000001110000011111100000011100000
0111000001110000000011100011100000011100111100000011000011100000000111
1100000110000000000001110001110000000011111000000111000011111000000000
0000000011100000111110000000111010000111000011111110000011100011111011
1110011111000001110000011101000000111100001110000000000001111000111010
0000011110000101110111111100000000000000000011110100011100001111111111
0011111101111111100011111110011111111100011111111111110011111111100000
1111000011100000000000001111111111110000011110001111111111110000000000
0000000011111111100111000011111111111011111001111110000011111110001111
1100000110111111111000111111111000000111011111111100000001111111111111
1100000011100001111111110000000000000000000111111111100000000011111110
0000000000000000000000111100000000000000000000001111100000111110000000
0001101111111111000000011111111111000000000011000000111000000000000000
0000000000110010000000000000000000000000000000000000000000000000000000
0000000000000000000000000000000000000000000111111110000000001100000000
0000000000000000000000000000000000000000000000000000000000000000000000
0000000000000000000000000000000000000000000000000000000000000000000000
0000000000000000000000000000000000000000000000000000000000000000000000
0000000000000000000000000000000000000000000000000000000000000000000000
0000000000000000000000000000111100000000000000000000000000000111110000
1000000011100000000000011100000000000000000000000111001110000000000111
1111000011111111000000110001111111111000000000000000000000000000011100
0000000000000000000000000111001110011000000000100000000000011100000000
0000000000000001110011100000000011000011000111000001100001110001100000
1100000000000000000000000000000010000000000000000000000000001100110010
0010000000011000000000000011000000000000000011000000110001100000000110
0000110001100000011000111000011000001100000000000000000000000000000010
1111000000000000000000000110011110110000000011111000011111000010000000
0000000011111000001000010000000001000000100011000000001100001000000000
0110000000000000000000000000000001111111100000000111100000001100110110
1111100011111110001110110000100111101111110110001100001000010000000000
0000011001100000000011000110000000001100000000000000000000000000000001
1100011011111001111000000011011001001001100010000110011000010001101111
1000110010001111000110001100000000000000110001100000000011000110000000
0011000000000000000000000000000000011000001001110000110000000010110011
0110011001000001100111111110011000110001100000111111000110001100000000
0000111000011000000000110001100000000110000000000000000000000000000000
0100000110001000001000000000101111111100010011000001000111111100010000
1100010000011000100001000010000000000001110000011000000001100001000000
0011000000000000000000000000000000000100000110001000011000000000110110
0101000100110000110001000000000100000110110000100001100001000010000000
0001110001100110000000011000110000000110000000000000000000000000000000
0011100011000011000110000000001100000111000100110001110001000011001100
0001111000011000111000110001100000000001100001100110000000110000110000
0001100000000000000000000000000000000111111110000011111110000000000111
1111000011100111111111011111100111000000110000011111111101110011100000
0000110000011000111000111000001100000011000000000000000000000000000000
0001100110000000001101100000000000011000000111100001000110001110000111
0000001100000001100110011100111000000001111111111000011111110000011110
0000100000000000000000000000000000000000000000000001000011000000000000
0000000000000000000000000000000000000000000000000000000000000000000000
0000010000000000000001100000000000000001100000000000000000000000000000
0000000000000000011000110000000000000000000000000000000000000000000000
0000000000000000000000000000000000000000000000000000000000000000000000
0000000000000000000000000000000000000000000000000000011001100000000000
0000000000000000000000000000000000000000000000000000000000000000000000
0000000000000000000000000000000000000000000000000000000000000000000000
0000000000000000000111110000000000000000000000000000000000000000000000
0000000000000000000000000000000000000000000000000000000000000000000000
0000000000000000000000000000000000000000000000000000000000000000000000
0000000000000000000000000000000000000000000000000000000000000000000000
0000000000000000000000000000000000000000000000000000000000000000000000
00000000